<mxfile host="app.diagrams.net" modified="2024-01-23T05:31:56.397Z" agent="Mozilla/5.0 (Windows NT 10.0; Win64; x64) AppleWebKit/537.36 (KHTML, like Gecko) Chrome/120.0.0.0 Safari/537.36 Edg/120.0.0.0" etag="RC3dqDFTCd7B1EyLuHt-" version="22.1.21" type="device">
  <diagram name="Page-1" id="miV0b3JEYbVUajCZFvoX">
    <mxGraphModel dx="1890" dy="591" grid="1" gridSize="10" guides="1" tooltips="1" connect="1" arrows="1" fold="1" page="1" pageScale="1" pageWidth="850" pageHeight="1100" math="0" shadow="0">
      <root>
        <mxCell id="0" />
        <mxCell id="1" parent="0" />
        <mxCell id="HKXGLFXUU13oDg_9Pwtt-1" value="&lt;b&gt;&lt;font style=&quot;font-size: 14px;&quot;&gt;ARTIST&lt;/font&gt;&lt;/b&gt;" style="rounded=1;whiteSpace=wrap;html=1;fillColor=#dae8fc;strokeColor=#6c8ebf;" parent="1" vertex="1">
          <mxGeometry x="290" y="200" width="180" height="40" as="geometry" />
        </mxCell>
        <mxCell id="HKXGLFXUU13oDg_9Pwtt-2" value="&lt;span style=&quot;font-size: 18px;&quot;&gt;&lt;b style=&quot;font-size: 18px;&quot;&gt;ARTWORK&lt;/b&gt;&lt;/span&gt;" style="rounded=1;whiteSpace=wrap;html=1;fillColor=#0050ef;fontColor=#ffffff;strokeColor=#001DBC;fontSize=18;" parent="1" vertex="1">
          <mxGeometry x="290" y="360" width="180" height="80" as="geometry" />
        </mxCell>
        <mxCell id="HKXGLFXUU13oDg_9Pwtt-3" value="manage" style="rhombus;whiteSpace=wrap;html=1;rounded=1;fillColor=#dae8fc;strokeColor=#6c8ebf;" parent="1" vertex="1">
          <mxGeometry x="390" y="280" width="70" height="40" as="geometry" />
        </mxCell>
        <mxCell id="HKXGLFXUU13oDg_9Pwtt-5" value="search" style="rhombus;whiteSpace=wrap;html=1;rounded=1;fillColor=#dae8fc;strokeColor=#6c8ebf;" parent="1" vertex="1">
          <mxGeometry x="300" y="280" width="70" height="40" as="geometry" />
        </mxCell>
        <mxCell id="HKXGLFXUU13oDg_9Pwtt-7" value="" style="endArrow=none;html=1;rounded=0;startArrow=ERmany;startFill=0;entryX=0.5;entryY=1;entryDx=0;entryDy=0;exitX=0.25;exitY=0;exitDx=0;exitDy=0;" parent="1" source="HKXGLFXUU13oDg_9Pwtt-2" target="HKXGLFXUU13oDg_9Pwtt-5" edge="1">
          <mxGeometry width="50" height="50" relative="1" as="geometry">
            <mxPoint x="270" y="300" as="sourcePoint" />
            <mxPoint x="290" y="240" as="targetPoint" />
            <Array as="points" />
          </mxGeometry>
        </mxCell>
        <mxCell id="HKXGLFXUU13oDg_9Pwtt-8" value="" style="endArrow=ERmany;html=1;rounded=0;entryX=0.25;entryY=1;entryDx=0;entryDy=0;exitX=0.5;exitY=0;exitDx=0;exitDy=0;endFill=0;" parent="1" source="HKXGLFXUU13oDg_9Pwtt-5" target="HKXGLFXUU13oDg_9Pwtt-1" edge="1">
          <mxGeometry width="50" height="50" relative="1" as="geometry">
            <mxPoint x="340" y="300" as="sourcePoint" />
            <mxPoint x="390" y="250" as="targetPoint" />
            <Array as="points" />
          </mxGeometry>
        </mxCell>
        <mxCell id="HKXGLFXUU13oDg_9Pwtt-9" value="" style="endArrow=ERone;html=1;rounded=0;entryX=0.75;entryY=1;entryDx=0;entryDy=0;exitX=0.5;exitY=0;exitDx=0;exitDy=0;endFill=0;" parent="1" source="HKXGLFXUU13oDg_9Pwtt-3" target="HKXGLFXUU13oDg_9Pwtt-1" edge="1">
          <mxGeometry width="50" height="50" relative="1" as="geometry">
            <mxPoint x="340" y="290" as="sourcePoint" />
            <mxPoint x="360" y="250" as="targetPoint" />
            <Array as="points" />
          </mxGeometry>
        </mxCell>
        <mxCell id="HKXGLFXUU13oDg_9Pwtt-10" value="" style="endArrow=none;html=1;rounded=0;startArrow=ERmany;startFill=0;entryX=0.5;entryY=1;entryDx=0;entryDy=0;exitX=0.75;exitY=0;exitDx=0;exitDy=0;" parent="1" source="HKXGLFXUU13oDg_9Pwtt-2" target="HKXGLFXUU13oDg_9Pwtt-3" edge="1">
          <mxGeometry width="50" height="50" relative="1" as="geometry">
            <mxPoint x="360" y="370" as="sourcePoint" />
            <mxPoint x="340" y="330" as="targetPoint" />
            <Array as="points" />
          </mxGeometry>
        </mxCell>
        <mxCell id="HKXGLFXUU13oDg_9Pwtt-11" value="has" style="rhombus;whiteSpace=wrap;html=1;rounded=1;fillColor=#dae8fc;strokeColor=#6c8ebf;" parent="1" vertex="1">
          <mxGeometry x="267.5" y="140" width="80" height="40" as="geometry" />
        </mxCell>
        <mxCell id="HKXGLFXUU13oDg_9Pwtt-12" value="&lt;span style=&quot;font-size: 14px;&quot;&gt;&lt;b&gt;PROFILE&lt;/b&gt;&lt;/span&gt;" style="rounded=1;whiteSpace=wrap;html=1;fillColor=#dae8fc;strokeColor=#6c8ebf;" parent="1" vertex="1">
          <mxGeometry x="250" y="80" width="115" height="40" as="geometry" />
        </mxCell>
        <mxCell id="HKXGLFXUU13oDg_9Pwtt-13" value="" style="endArrow=none;html=1;rounded=0;exitX=0.5;exitY=0;exitDx=0;exitDy=0;startArrow=ERone;startFill=0;" parent="1" edge="1">
          <mxGeometry width="50" height="50" relative="1" as="geometry">
            <mxPoint x="307.5" y="200" as="sourcePoint" />
            <mxPoint x="307.5" y="180" as="targetPoint" />
          </mxGeometry>
        </mxCell>
        <mxCell id="HKXGLFXUU13oDg_9Pwtt-14" value="" style="endArrow=ERone;html=1;rounded=0;exitX=0.5;exitY=0;exitDx=0;exitDy=0;entryX=0.5;entryY=1;entryDx=0;entryDy=0;endFill=0;" parent="1" source="HKXGLFXUU13oDg_9Pwtt-11" target="HKXGLFXUU13oDg_9Pwtt-12" edge="1">
          <mxGeometry width="50" height="50" relative="1" as="geometry">
            <mxPoint x="317.5" y="210" as="sourcePoint" />
            <mxPoint x="317.5" y="170" as="targetPoint" />
          </mxGeometry>
        </mxCell>
        <mxCell id="HKXGLFXUU13oDg_9Pwtt-19" value="&lt;b&gt;&lt;font style=&quot;font-size: 14px;&quot;&gt;AUDIENCE&lt;/font&gt;&lt;/b&gt;" style="rounded=1;whiteSpace=wrap;html=1;fillColor=#f8cecc;strokeColor=#b85450;" parent="1" vertex="1">
          <mxGeometry x="290" y="560" width="180" height="40" as="geometry" />
        </mxCell>
        <mxCell id="HKXGLFXUU13oDg_9Pwtt-20" value="search" style="rhombus;whiteSpace=wrap;html=1;rounded=1;fillColor=#f8cecc;strokeColor=#b85450;" parent="1" vertex="1">
          <mxGeometry x="300" y="480" width="70" height="40" as="geometry" />
        </mxCell>
        <mxCell id="HKXGLFXUU13oDg_9Pwtt-21" value="interact" style="rhombus;whiteSpace=wrap;html=1;rounded=1;fillColor=#f8cecc;strokeColor=#b85450;" parent="1" vertex="1">
          <mxGeometry x="390" y="480" width="70" height="40" as="geometry" />
        </mxCell>
        <mxCell id="HKXGLFXUU13oDg_9Pwtt-22" value="" style="endArrow=none;html=1;rounded=0;startArrow=ERmany;startFill=0;entryX=0.5;entryY=0;entryDx=0;entryDy=0;exitX=0.75;exitY=1;exitDx=0;exitDy=0;" parent="1" target="HKXGLFXUU13oDg_9Pwtt-21" edge="1">
          <mxGeometry width="50" height="50" relative="1" as="geometry">
            <mxPoint x="425" y="440" as="sourcePoint" />
            <mxPoint x="435" y="370" as="targetPoint" />
            <Array as="points" />
          </mxGeometry>
        </mxCell>
        <mxCell id="HKXGLFXUU13oDg_9Pwtt-23" value="" style="endArrow=none;html=1;rounded=0;startArrow=ERmany;startFill=0;entryX=0.5;entryY=0;entryDx=0;entryDy=0;exitX=0.25;exitY=1;exitDx=0;exitDy=0;" parent="1" target="HKXGLFXUU13oDg_9Pwtt-20" edge="1">
          <mxGeometry width="50" height="50" relative="1" as="geometry">
            <mxPoint x="335" y="440" as="sourcePoint" />
            <mxPoint x="435" y="490" as="targetPoint" />
            <Array as="points" />
          </mxGeometry>
        </mxCell>
        <mxCell id="HKXGLFXUU13oDg_9Pwtt-24" value="" style="endArrow=ERone;html=1;rounded=0;entryX=0.75;entryY=0;entryDx=0;entryDy=0;endFill=0;" parent="1" target="HKXGLFXUU13oDg_9Pwtt-19" edge="1">
          <mxGeometry width="50" height="50" relative="1" as="geometry">
            <mxPoint x="425" y="520" as="sourcePoint" />
            <mxPoint x="435" y="290" as="targetPoint" />
            <Array as="points" />
          </mxGeometry>
        </mxCell>
        <mxCell id="HKXGLFXUU13oDg_9Pwtt-25" value="" style="endArrow=ERmany;html=1;rounded=0;entryX=0.25;entryY=0;entryDx=0;entryDy=0;endFill=0;exitX=0.5;exitY=1;exitDx=0;exitDy=0;" parent="1" source="HKXGLFXUU13oDg_9Pwtt-20" target="HKXGLFXUU13oDg_9Pwtt-19" edge="1">
          <mxGeometry width="50" height="50" relative="1" as="geometry">
            <mxPoint x="435" y="530" as="sourcePoint" />
            <mxPoint x="435" y="570" as="targetPoint" />
            <Array as="points" />
          </mxGeometry>
        </mxCell>
        <mxCell id="HKXGLFXUU13oDg_9Pwtt-26" value="search" style="rhombus;whiteSpace=wrap;html=1;rounded=1;fillColor=#f8cecc;strokeColor=#b85450;" parent="1" vertex="1">
          <mxGeometry x="160" y="440" width="80" height="40" as="geometry" />
        </mxCell>
        <mxCell id="HKXGLFXUU13oDg_9Pwtt-28" value="&lt;span style=&quot;font-size: 14px;&quot;&gt;&lt;b&gt;REQUEST&lt;/b&gt;&lt;/span&gt;" style="rounded=1;whiteSpace=wrap;html=1;fillColor=#e51400;fontColor=#ffffff;strokeColor=#B20000;" parent="1" vertex="1">
          <mxGeometry x="760" y="360" width="180" height="40" as="geometry" />
        </mxCell>
        <mxCell id="HKXGLFXUU13oDg_9Pwtt-29" value="pull" style="rhombus;whiteSpace=wrap;html=1;rounded=1;fillColor=#f8cecc;strokeColor=#b85450;" parent="1" vertex="1">
          <mxGeometry x="815" y="480" width="70" height="40" as="geometry" />
        </mxCell>
        <mxCell id="HKXGLFXUU13oDg_9Pwtt-30" value="" style="endArrow=ERone;html=1;rounded=0;entryX=1;entryY=0.5;entryDx=0;entryDy=0;endFill=0;exitX=0.5;exitY=1;exitDx=0;exitDy=0;" parent="1" source="HKXGLFXUU13oDg_9Pwtt-29" target="HKXGLFXUU13oDg_9Pwtt-19" edge="1">
          <mxGeometry width="50" height="50" relative="1" as="geometry">
            <mxPoint x="435" y="490" as="sourcePoint" />
            <mxPoint x="435" y="530" as="targetPoint" />
            <Array as="points">
              <mxPoint x="850" y="580" />
            </Array>
          </mxGeometry>
        </mxCell>
        <mxCell id="HKXGLFXUU13oDg_9Pwtt-31" value="" style="endArrow=none;html=1;rounded=0;startArrow=ERmany;startFill=0;entryX=0.5;entryY=0;entryDx=0;entryDy=0;exitX=0.75;exitY=1;exitDx=0;exitDy=0;" parent="1" target="HKXGLFXUU13oDg_9Pwtt-29" edge="1">
          <mxGeometry width="50" height="50" relative="1" as="geometry">
            <mxPoint x="849.66" y="400" as="sourcePoint" />
            <mxPoint x="849.66" y="440" as="targetPoint" />
            <Array as="points" />
          </mxGeometry>
        </mxCell>
        <mxCell id="HKXGLFXUU13oDg_9Pwtt-32" value="commit" style="rhombus;whiteSpace=wrap;html=1;rounded=1;fillColor=#dae8fc;strokeColor=#6c8ebf;" parent="1" vertex="1">
          <mxGeometry x="815" y="280" width="70" height="40" as="geometry" />
        </mxCell>
        <mxCell id="HKXGLFXUU13oDg_9Pwtt-34" value="" style="endArrow=none;html=1;rounded=0;startArrow=ERmany;startFill=0;entryX=0.5;entryY=0;entryDx=0;entryDy=0;exitX=1;exitY=0.25;exitDx=0;exitDy=0;" parent="1" source="HKXGLFXUU13oDg_9Pwtt-1" target="HKXGLFXUU13oDg_9Pwtt-32" edge="1">
          <mxGeometry width="50" height="50" relative="1" as="geometry">
            <mxPoint x="629.66" y="410" as="sourcePoint" />
            <mxPoint x="629.66" y="450" as="targetPoint" />
            <Array as="points">
              <mxPoint x="850" y="210" />
            </Array>
          </mxGeometry>
        </mxCell>
        <mxCell id="HKXGLFXUU13oDg_9Pwtt-35" value="" style="endArrow=none;html=1;rounded=0;startArrow=ERmany;startFill=0;entryX=0.5;entryY=1;entryDx=0;entryDy=0;" parent="1" source="HKXGLFXUU13oDg_9Pwtt-28" target="HKXGLFXUU13oDg_9Pwtt-32" edge="1">
          <mxGeometry width="50" height="50" relative="1" as="geometry">
            <mxPoint x="859.66" y="410" as="sourcePoint" />
            <mxPoint x="859.66" y="450" as="targetPoint" />
            <Array as="points" />
          </mxGeometry>
        </mxCell>
        <mxCell id="HKXGLFXUU13oDg_9Pwtt-36" value="&lt;span style=&quot;font-size: 14px;&quot;&gt;&lt;b&gt;PROFILE&lt;/b&gt;&lt;/span&gt;" style="rounded=1;whiteSpace=wrap;html=1;fillColor=#f8cecc;strokeColor=#b85450;" parent="1" vertex="1">
          <mxGeometry x="275" y="680" width="90" height="40" as="geometry" />
        </mxCell>
        <mxCell id="HKXGLFXUU13oDg_9Pwtt-37" value="manage" style="rhombus;whiteSpace=wrap;html=1;rounded=1;fillColor=#f8cecc;strokeColor=#b85450;" parent="1" vertex="1">
          <mxGeometry x="280" y="620" width="80" height="40" as="geometry" />
        </mxCell>
        <mxCell id="HKXGLFXUU13oDg_9Pwtt-39" value="" style="endArrow=none;html=1;rounded=0;exitX=0.5;exitY=0;exitDx=0;exitDy=0;startArrow=ERone;startFill=0;" parent="1" source="HKXGLFXUU13oDg_9Pwtt-36" edge="1">
          <mxGeometry width="50" height="50" relative="1" as="geometry">
            <mxPoint x="330" y="250" as="sourcePoint" />
            <mxPoint x="320" y="660" as="targetPoint" />
          </mxGeometry>
        </mxCell>
        <mxCell id="HKXGLFXUU13oDg_9Pwtt-40" value="" style="endArrow=none;html=1;rounded=0;exitX=0.5;exitY=1;exitDx=0;exitDy=0;startArrow=ERone;startFill=0;entryX=0.5;entryY=0;entryDx=0;entryDy=0;" parent="1" target="HKXGLFXUU13oDg_9Pwtt-37" edge="1">
          <mxGeometry width="50" height="50" relative="1" as="geometry">
            <mxPoint x="320" y="600" as="sourcePoint" />
            <mxPoint x="330" y="670" as="targetPoint" />
          </mxGeometry>
        </mxCell>
        <mxCell id="HKXGLFXUU13oDg_9Pwtt-41" value="&lt;span style=&quot;font-size: 14px;&quot;&gt;&lt;b&gt;PROPERTY&lt;/b&gt;&lt;/span&gt;" style="rounded=1;whiteSpace=wrap;html=1;fillColor=#0050ef;strokeColor=#001DBC;fontColor=#ffffff;" parent="1" vertex="1">
          <mxGeometry x="600" y="360" width="110" height="40" as="geometry" />
        </mxCell>
        <mxCell id="HKXGLFXUU13oDg_9Pwtt-43" value="has" style="rhombus;whiteSpace=wrap;html=1;rounded=1;fillColor=#0050ef;strokeColor=#001DBC;fontColor=#ffffff;" parent="1" vertex="1">
          <mxGeometry x="500" y="360" width="80" height="40" as="geometry" />
        </mxCell>
        <mxCell id="HKXGLFXUU13oDg_9Pwtt-44" value="" style="endArrow=none;html=1;rounded=0;startArrow=ERmany;startFill=0;entryX=0;entryY=0.5;entryDx=0;entryDy=0;exitX=1;exitY=0.25;exitDx=0;exitDy=0;" parent="1" source="HKXGLFXUU13oDg_9Pwtt-2" target="HKXGLFXUU13oDg_9Pwtt-43" edge="1">
          <mxGeometry width="50" height="50" relative="1" as="geometry">
            <mxPoint x="470" y="420" as="sourcePoint" />
            <mxPoint x="500" y="420" as="targetPoint" />
            <Array as="points" />
          </mxGeometry>
        </mxCell>
        <mxCell id="HKXGLFXUU13oDg_9Pwtt-45" value="" style="endArrow=none;html=1;rounded=0;startArrow=ERone;startFill=0;entryX=1;entryY=0.5;entryDx=0;entryDy=0;exitX=0;exitY=0.5;exitDx=0;exitDy=0;" parent="1" source="HKXGLFXUU13oDg_9Pwtt-41" target="HKXGLFXUU13oDg_9Pwtt-43" edge="1">
          <mxGeometry width="50" height="50" relative="1" as="geometry">
            <mxPoint x="480" y="390" as="sourcePoint" />
            <mxPoint x="510" y="390" as="targetPoint" />
            <Array as="points" />
          </mxGeometry>
        </mxCell>
        <mxCell id="HKXGLFXUU13oDg_9Pwtt-46" value="" style="endArrow=ERmany;html=1;rounded=0;entryX=0;entryY=0.25;entryDx=0;entryDy=0;endFill=0;exitX=0.5;exitY=1;exitDx=0;exitDy=0;" parent="1" source="HKXGLFXUU13oDg_9Pwtt-26" target="HKXGLFXUU13oDg_9Pwtt-19" edge="1">
          <mxGeometry width="50" height="50" relative="1" as="geometry">
            <mxPoint x="345" y="490" as="sourcePoint" />
            <mxPoint x="345" y="530" as="targetPoint" />
            <Array as="points">
              <mxPoint x="200" y="570" />
            </Array>
          </mxGeometry>
        </mxCell>
        <mxCell id="HKXGLFXUU13oDg_9Pwtt-47" value="" style="endArrow=ERmany;html=1;rounded=0;entryX=0;entryY=0.5;entryDx=0;entryDy=0;endFill=0;exitX=0.5;exitY=0;exitDx=0;exitDy=0;" parent="1" source="HKXGLFXUU13oDg_9Pwtt-26" target="HKXGLFXUU13oDg_9Pwtt-1" edge="1">
          <mxGeometry width="50" height="50" relative="1" as="geometry">
            <mxPoint x="180" y="290" as="sourcePoint" />
            <mxPoint x="270" y="350" as="targetPoint" />
            <Array as="points">
              <mxPoint x="200" y="220" />
            </Array>
          </mxGeometry>
        </mxCell>
        <mxCell id="HKXGLFXUU13oDg_9Pwtt-48" value="browse" style="rhombus;whiteSpace=wrap;html=1;rounded=1;fillColor=#dae8fc;strokeColor=#6c8ebf;" parent="1" vertex="1">
          <mxGeometry x="345" y="120" width="75" height="40" as="geometry" />
        </mxCell>
        <mxCell id="HKXGLFXUU13oDg_9Pwtt-50" value="" style="endArrow=none;html=1;rounded=0;startArrow=ERmany;startFill=0;exitX=0.75;exitY=0;exitDx=0;exitDy=0;entryX=1;entryY=0.5;entryDx=0;entryDy=0;" parent="1" target="HKXGLFXUU13oDg_9Pwtt-48" edge="1">
          <mxGeometry width="50" height="50" relative="1" as="geometry">
            <mxPoint x="402.4999999999998" y="200" as="sourcePoint" />
            <mxPoint x="437.5" y="160" as="targetPoint" />
            <Array as="points">
              <mxPoint x="402.5" y="170" />
            </Array>
          </mxGeometry>
        </mxCell>
        <mxCell id="HKXGLFXUU13oDg_9Pwtt-51" value="" style="endArrow=none;html=1;rounded=0;startArrow=ERmany;startFill=0;exitX=0.5;exitY=0;exitDx=0;exitDy=0;entryX=0;entryY=0.5;entryDx=0;entryDy=0;" parent="1" target="HKXGLFXUU13oDg_9Pwtt-48" edge="1">
          <mxGeometry width="50" height="50" relative="1" as="geometry">
            <mxPoint x="357.4999999999998" y="200" as="sourcePoint" />
            <mxPoint x="447.5" y="170" as="targetPoint" />
            <Array as="points">
              <mxPoint x="357.5" y="170" />
            </Array>
          </mxGeometry>
        </mxCell>
        <mxCell id="HKXGLFXUU13oDg_9Pwtt-53" value="&lt;span style=&quot;font-size: 14px;&quot;&gt;&lt;b&gt;CART&lt;/b&gt;&lt;/span&gt;" style="rounded=1;whiteSpace=wrap;html=1;fillColor=#f8cecc;strokeColor=#b85450;" parent="1" vertex="1">
          <mxGeometry x="1000" y="360" width="80" height="40" as="geometry" />
        </mxCell>
        <mxCell id="HKXGLFXUU13oDg_9Pwtt-54" value="manage" style="rhombus;whiteSpace=wrap;html=1;rounded=1;fillColor=#f8cecc;strokeColor=#b85450;" parent="1" vertex="1">
          <mxGeometry x="400" y="620" width="80" height="40" as="geometry" />
        </mxCell>
        <mxCell id="HKXGLFXUU13oDg_9Pwtt-55" value="" style="endArrow=none;html=1;rounded=0;exitX=0.5;exitY=1;exitDx=0;exitDy=0;startArrow=ERone;startFill=0;entryX=0.5;entryY=1;entryDx=0;entryDy=0;" parent="1" source="HKXGLFXUU13oDg_9Pwtt-53" target="HKXGLFXUU13oDg_9Pwtt-54" edge="1">
          <mxGeometry width="50" height="50" relative="1" as="geometry">
            <mxPoint x="440" y="680" as="sourcePoint" />
            <mxPoint x="440" y="670" as="targetPoint" />
            <Array as="points">
              <mxPoint x="1040" y="660" />
            </Array>
          </mxGeometry>
        </mxCell>
        <mxCell id="HKXGLFXUU13oDg_9Pwtt-56" value="" style="endArrow=none;html=1;rounded=0;exitX=0.5;exitY=1;exitDx=0;exitDy=0;startArrow=ERone;startFill=0;entryX=0.5;entryY=0;entryDx=0;entryDy=0;" parent="1" target="HKXGLFXUU13oDg_9Pwtt-54" edge="1">
          <mxGeometry width="50" height="50" relative="1" as="geometry">
            <mxPoint x="440" y="600" as="sourcePoint" />
            <mxPoint x="450" y="670" as="targetPoint" />
          </mxGeometry>
        </mxCell>
        <mxCell id="HKXGLFXUU13oDg_9Pwtt-58" value="&lt;b&gt;&lt;font style=&quot;font-size: 14px;&quot;&gt;MODERATOR&lt;/font&gt;&lt;/b&gt;" style="rounded=1;whiteSpace=wrap;html=1;fillColor=#fff2cc;strokeColor=#d6b656;" parent="1" vertex="1">
          <mxGeometry x="-120" y="380" width="180" height="40" as="geometry" />
        </mxCell>
        <mxCell id="HKXGLFXUU13oDg_9Pwtt-59" value="manage" style="rhombus;whiteSpace=wrap;html=1;rounded=1;fillColor=#fff2cc;strokeColor=#d6b656;" parent="1" vertex="1">
          <mxGeometry x="-65" y="190" width="70" height="40" as="geometry" />
        </mxCell>
        <mxCell id="HKXGLFXUU13oDg_9Pwtt-60" value="" style="endArrow=none;html=1;rounded=0;startArrow=ERmany;startFill=0;entryX=0.5;entryY=1;entryDx=0;entryDy=0;exitX=0.5;exitY=0;exitDx=0;exitDy=0;" parent="1" source="HKXGLFXUU13oDg_9Pwtt-58" target="HKXGLFXUU13oDg_9Pwtt-59" edge="1">
          <mxGeometry width="50" height="50" relative="1" as="geometry">
            <mxPoint x="-30" y="360" as="sourcePoint" />
            <mxPoint x="-30" y="320" as="targetPoint" />
            <Array as="points" />
          </mxGeometry>
        </mxCell>
        <mxCell id="HKXGLFXUU13oDg_9Pwtt-61" value="" style="endArrow=none;html=1;rounded=0;startArrow=ERmany;startFill=0;entryX=1;entryY=0.5;entryDx=0;entryDy=0;exitX=0;exitY=0.25;exitDx=0;exitDy=0;" parent="1" source="HKXGLFXUU13oDg_9Pwtt-1" target="HKXGLFXUU13oDg_9Pwtt-59" edge="1">
          <mxGeometry width="50" height="50" relative="1" as="geometry">
            <mxPoint x="10" y="370" as="sourcePoint" />
            <mxPoint x="10" y="240" as="targetPoint" />
            <Array as="points" />
          </mxGeometry>
        </mxCell>
        <mxCell id="HKXGLFXUU13oDg_9Pwtt-63" value="censor" style="rhombus;whiteSpace=wrap;html=1;rounded=1;fillColor=#fff2cc;strokeColor=#d6b656;" parent="1" vertex="1">
          <mxGeometry x="90" y="380" width="70" height="40" as="geometry" />
        </mxCell>
        <mxCell id="HKXGLFXUU13oDg_9Pwtt-64" value="" style="endArrow=none;html=1;rounded=0;startArrow=ERmany;startFill=0;entryX=0;entryY=0.5;entryDx=0;entryDy=0;exitX=1;exitY=0.5;exitDx=0;exitDy=0;" parent="1" source="HKXGLFXUU13oDg_9Pwtt-58" target="HKXGLFXUU13oDg_9Pwtt-63" edge="1">
          <mxGeometry width="50" height="50" relative="1" as="geometry">
            <mxPoint x="-20" y="390" as="sourcePoint" />
            <mxPoint x="-20" y="260" as="targetPoint" />
            <Array as="points" />
          </mxGeometry>
        </mxCell>
        <mxCell id="HKXGLFXUU13oDg_9Pwtt-65" value="" style="endArrow=none;html=1;rounded=0;startArrow=ERmany;startFill=0;entryX=1;entryY=0.5;entryDx=0;entryDy=0;exitX=0;exitY=0.5;exitDx=0;exitDy=0;" parent="1" source="HKXGLFXUU13oDg_9Pwtt-2" target="HKXGLFXUU13oDg_9Pwtt-63" edge="1">
          <mxGeometry width="50" height="50" relative="1" as="geometry">
            <mxPoint x="100" y="390" as="sourcePoint" />
            <mxPoint x="130" y="390" as="targetPoint" />
            <Array as="points" />
          </mxGeometry>
        </mxCell>
        <mxCell id="HKXGLFXUU13oDg_9Pwtt-66" value="manage" style="rhombus;whiteSpace=wrap;html=1;rounded=1;fillColor=#fff2cc;strokeColor=#d6b656;" parent="1" vertex="1">
          <mxGeometry x="90" y="570" width="70" height="40" as="geometry" />
        </mxCell>
        <mxCell id="HKXGLFXUU13oDg_9Pwtt-67" value="" style="endArrow=none;html=1;rounded=0;startArrow=ERmany;startFill=0;entryX=0;entryY=0.5;entryDx=0;entryDy=0;exitX=0.5;exitY=1;exitDx=0;exitDy=0;" parent="1" source="HKXGLFXUU13oDg_9Pwtt-58" target="HKXGLFXUU13oDg_9Pwtt-66" edge="1">
          <mxGeometry width="50" height="50" relative="1" as="geometry">
            <mxPoint x="60" y="550" as="sourcePoint" />
            <mxPoint x="-20" y="410" as="targetPoint" />
            <Array as="points">
              <mxPoint x="-30" y="590" />
            </Array>
          </mxGeometry>
        </mxCell>
        <mxCell id="HKXGLFXUU13oDg_9Pwtt-68" value="" style="endArrow=none;html=1;rounded=0;startArrow=ERmany;startFill=0;entryX=1;entryY=0.5;entryDx=0;entryDy=0;exitX=0;exitY=0.75;exitDx=0;exitDy=0;" parent="1" source="HKXGLFXUU13oDg_9Pwtt-19" target="HKXGLFXUU13oDg_9Pwtt-66" edge="1">
          <mxGeometry width="50" height="50" relative="1" as="geometry">
            <mxPoint x="290" y="550" as="sourcePoint" />
            <mxPoint x="130" y="560" as="targetPoint" />
            <Array as="points" />
          </mxGeometry>
        </mxCell>
        <mxCell id="HKXGLFXUU13oDg_9Pwtt-69" value="&lt;b&gt;&lt;font style=&quot;font-size: 14px;&quot;&gt;GUESS&lt;/font&gt;&lt;/b&gt;" style="rounded=1;whiteSpace=wrap;html=1;fillColor=#f5f5f5;strokeColor=#666666;fontColor=#333333;" parent="1" vertex="1">
          <mxGeometry x="620" y="600" width="160" height="40" as="geometry" />
        </mxCell>
        <mxCell id="HKXGLFXUU13oDg_9Pwtt-70" value="search" style="rhombus;whiteSpace=wrap;html=1;rounded=1;fillColor=#f5f5f5;fontColor=#333333;strokeColor=#666666;" parent="1" vertex="1">
          <mxGeometry x="620" y="480" width="80" height="40" as="geometry" />
        </mxCell>
        <mxCell id="HKXGLFXUU13oDg_9Pwtt-71" value="" style="endArrow=none;html=1;rounded=0;startArrow=ERmany;startFill=0;exitX=1;exitY=0.75;exitDx=0;exitDy=0;entryX=0.5;entryY=0;entryDx=0;entryDy=0;" parent="1" source="HKXGLFXUU13oDg_9Pwtt-2" target="HKXGLFXUU13oDg_9Pwtt-70" edge="1">
          <mxGeometry width="50" height="50" relative="1" as="geometry">
            <mxPoint x="480" y="390" as="sourcePoint" />
            <mxPoint x="500" y="420" as="targetPoint" />
            <Array as="points">
              <mxPoint x="660" y="420" />
            </Array>
          </mxGeometry>
        </mxCell>
        <mxCell id="HKXGLFXUU13oDg_9Pwtt-73" value="search" style="rhombus;whiteSpace=wrap;html=1;rounded=1;fillColor=#f5f5f5;fontColor=#333333;strokeColor=#666666;" parent="1" vertex="1">
          <mxGeometry x="700" y="480" width="80" height="40" as="geometry" />
        </mxCell>
        <mxCell id="HKXGLFXUU13oDg_9Pwtt-74" value="" style="endArrow=none;html=1;rounded=0;startArrow=ERmany;startFill=0;exitX=1;exitY=0.75;exitDx=0;exitDy=0;entryX=0.5;entryY=0;entryDx=0;entryDy=0;" parent="1" source="HKXGLFXUU13oDg_9Pwtt-1" target="HKXGLFXUU13oDg_9Pwtt-73" edge="1">
          <mxGeometry width="50" height="50" relative="1" as="geometry">
            <mxPoint x="480" y="430" as="sourcePoint" />
            <mxPoint x="665" y="490" as="targetPoint" />
            <Array as="points">
              <mxPoint x="740" y="230" />
            </Array>
          </mxGeometry>
        </mxCell>
        <mxCell id="HKXGLFXUU13oDg_9Pwtt-75" value="" style="endArrow=none;html=1;rounded=0;startArrow=ERmany;startFill=0;exitX=0.75;exitY=0;exitDx=0;exitDy=0;entryX=0.5;entryY=1;entryDx=0;entryDy=0;" parent="1" source="HKXGLFXUU13oDg_9Pwtt-69" target="HKXGLFXUU13oDg_9Pwtt-73" edge="1">
          <mxGeometry width="50" height="50" relative="1" as="geometry">
            <mxPoint x="480" y="240" as="sourcePoint" />
            <mxPoint x="750" y="490" as="targetPoint" />
            <Array as="points" />
          </mxGeometry>
        </mxCell>
        <mxCell id="HKXGLFXUU13oDg_9Pwtt-76" value="" style="endArrow=none;html=1;rounded=0;startArrow=ERmany;startFill=0;exitX=0.25;exitY=0;exitDx=0;exitDy=0;entryX=0.5;entryY=1;entryDx=0;entryDy=0;" parent="1" source="HKXGLFXUU13oDg_9Pwtt-69" target="HKXGLFXUU13oDg_9Pwtt-70" edge="1">
          <mxGeometry width="50" height="50" relative="1" as="geometry">
            <mxPoint x="748" y="620" as="sourcePoint" />
            <mxPoint x="750" y="530" as="targetPoint" />
            <Array as="points" />
          </mxGeometry>
        </mxCell>
        <mxCell id="HKXGLFXUU13oDg_9Pwtt-77" value="&lt;b&gt;&lt;font style=&quot;font-size: 14px;&quot;&gt;AUTHORIZED USER&lt;/font&gt;&lt;/b&gt;" style="rounded=1;whiteSpace=wrap;html=1;fillColor=#f5f5f5;strokeColor=#666666;fontColor=#333333;" parent="1" vertex="1">
          <mxGeometry x="620" y="760" width="160" height="40" as="geometry" />
        </mxCell>
        <mxCell id="HKXGLFXUU13oDg_9Pwtt-78" value="login" style="rhombus;whiteSpace=wrap;html=1;rounded=1;fillColor=#f5f5f5;strokeColor=#666666;fontColor=#333333;" parent="1" vertex="1">
          <mxGeometry x="660" y="680" width="80" height="40" as="geometry" />
        </mxCell>
        <mxCell id="HKXGLFXUU13oDg_9Pwtt-79" value="" style="endArrow=none;html=1;rounded=0;startArrow=ERone;startFill=0;exitX=0.5;exitY=1;exitDx=0;exitDy=0;entryX=0.5;entryY=0;entryDx=0;entryDy=0;" parent="1" source="HKXGLFXUU13oDg_9Pwtt-69" target="HKXGLFXUU13oDg_9Pwtt-78" edge="1">
          <mxGeometry width="50" height="50" relative="1" as="geometry">
            <mxPoint x="670" y="620" as="sourcePoint" />
            <mxPoint x="670" y="530" as="targetPoint" />
            <Array as="points" />
          </mxGeometry>
        </mxCell>
        <mxCell id="HKXGLFXUU13oDg_9Pwtt-80" value="" style="endArrow=none;html=1;rounded=0;startArrow=ERone;startFill=0;exitX=0.5;exitY=0;exitDx=0;exitDy=0;entryX=0.5;entryY=1;entryDx=0;entryDy=0;" parent="1" source="HKXGLFXUU13oDg_9Pwtt-77" target="HKXGLFXUU13oDg_9Pwtt-78" edge="1">
          <mxGeometry width="50" height="50" relative="1" as="geometry">
            <mxPoint x="710" y="660" as="sourcePoint" />
            <mxPoint x="710" y="690" as="targetPoint" />
            <Array as="points" />
          </mxGeometry>
        </mxCell>
        <mxCell id="HKXGLFXUU13oDg_9Pwtt-81" value="decentralize" style="rhombus;whiteSpace=wrap;html=1;rounded=1;fillColor=#f5f5f5;strokeColor=#666666;fontColor=#333333;" parent="1" vertex="1">
          <mxGeometry x="480" y="760" width="80" height="40" as="geometry" />
        </mxCell>
        <mxCell id="HKXGLFXUU13oDg_9Pwtt-83" value="" style="endArrow=none;html=1;rounded=0;startArrow=ERone;startFill=0;exitX=0;exitY=0.5;exitDx=0;exitDy=0;entryX=1;entryY=0.5;entryDx=0;entryDy=0;" parent="1" source="HKXGLFXUU13oDg_9Pwtt-77" target="HKXGLFXUU13oDg_9Pwtt-81" edge="1">
          <mxGeometry width="50" height="50" relative="1" as="geometry">
            <mxPoint x="710" y="770" as="sourcePoint" />
            <mxPoint x="710" y="730" as="targetPoint" />
            <Array as="points" />
          </mxGeometry>
        </mxCell>
        <mxCell id="HKXGLFXUU13oDg_9Pwtt-84" value="" style="endArrow=none;html=1;rounded=0;startArrow=ERone;startFill=0;exitX=0.5;exitY=1;exitDx=0;exitDy=0;entryX=0;entryY=0.5;entryDx=0;entryDy=0;" parent="1" source="HKXGLFXUU13oDg_9Pwtt-19" target="HKXGLFXUU13oDg_9Pwtt-81" edge="1">
          <mxGeometry width="50" height="50" relative="1" as="geometry">
            <mxPoint x="240" y="810" as="sourcePoint" />
            <mxPoint x="40" y="810" as="targetPoint" />
            <Array as="points">
              <mxPoint x="380" y="780" />
            </Array>
          </mxGeometry>
        </mxCell>
        <mxCell id="HKXGLFXUU13oDg_9Pwtt-85" value="" style="endArrow=none;html=1;rounded=0;startArrow=ERone;startFill=0;exitX=0.25;exitY=1;exitDx=0;exitDy=0;entryX=0;entryY=0.5;entryDx=0;entryDy=0;" parent="1" source="HKXGLFXUU13oDg_9Pwtt-58" target="HKXGLFXUU13oDg_9Pwtt-81" edge="1">
          <mxGeometry width="50" height="50" relative="1" as="geometry">
            <mxPoint x="310" y="650" as="sourcePoint" />
            <mxPoint x="410" y="830" as="targetPoint" />
            <Array as="points">
              <mxPoint x="-75" y="800" />
              <mxPoint x="380" y="800" />
              <mxPoint x="380" y="780" />
            </Array>
          </mxGeometry>
        </mxCell>
        <mxCell id="HKXGLFXUU13oDg_9Pwtt-87" value="" style="endArrow=none;html=1;rounded=0;startArrow=ERone;startFill=0;exitX=0;exitY=0.75;exitDx=0;exitDy=0;" parent="1" source="HKXGLFXUU13oDg_9Pwtt-1" target="HKXGLFXUU13oDg_9Pwtt-91" edge="1">
          <mxGeometry width="50" height="50" relative="1" as="geometry">
            <mxPoint x="-115" y="440" as="sourcePoint" />
            <mxPoint x="480" y="780" as="targetPoint" />
            <Array as="points">
              <mxPoint x="260" y="230" />
              <mxPoint x="260" y="780" />
              <mxPoint x="380" y="780" />
            </Array>
          </mxGeometry>
        </mxCell>
        <mxCell id="HKXGLFXUU13oDg_9Pwtt-91" value="" style="shape=waypoint;sketch=0;fillStyle=solid;size=6;pointerEvents=1;points=[];fillColor=none;resizable=0;rotatable=0;perimeter=centerPerimeter;snapToPoint=1;" parent="1" vertex="1">
          <mxGeometry x="370" y="770" width="20" height="20" as="geometry" />
        </mxCell>
        <mxCell id="HKXGLFXUU13oDg_9Pwtt-93" value="manage" style="rhombus;whiteSpace=wrap;html=1;rounded=1;fillColor=#dae8fc;strokeColor=#6c8ebf;" parent="1" vertex="1">
          <mxGeometry x="415" y="140" width="80" height="40" as="geometry" />
        </mxCell>
        <mxCell id="HKXGLFXUU13oDg_9Pwtt-94" value="" style="endArrow=none;html=1;rounded=0;startArrow=ERone;startFill=0;exitX=0.75;exitY=0;exitDx=0;exitDy=0;entryX=0.5;entryY=1;entryDx=0;entryDy=0;" parent="1" target="HKXGLFXUU13oDg_9Pwtt-93" edge="1">
          <mxGeometry width="50" height="50" relative="1" as="geometry">
            <mxPoint x="455" y="200" as="sourcePoint" />
            <mxPoint x="470" y="140" as="targetPoint" />
            <Array as="points" />
          </mxGeometry>
        </mxCell>
        <mxCell id="HKXGLFXUU13oDg_9Pwtt-95" value="" style="endArrow=none;html=1;rounded=0;startArrow=ERone;startFill=0;exitX=0.5;exitY=0;exitDx=0;exitDy=0;entryX=0.5;entryY=0;entryDx=0;entryDy=0;" parent="1" source="HKXGLFXUU13oDg_9Pwtt-53" target="HKXGLFXUU13oDg_9Pwtt-93" edge="1">
          <mxGeometry width="50" height="50" relative="1" as="geometry">
            <mxPoint x="455" y="119.99999999999989" as="sourcePoint" />
            <mxPoint x="490" y="170" as="targetPoint" />
            <Array as="points">
              <mxPoint x="1040" y="120" />
              <mxPoint x="455" y="120" />
            </Array>
          </mxGeometry>
        </mxCell>
      </root>
    </mxGraphModel>
  </diagram>
</mxfile>
